<?xml version="1.0" encoding="iso-8859-1"?>
<!-- Generator: Adobe Illustrator 16.0.0, SVG Export Plug-In . SVG Version: 6.00 Build 0)  -->
<!DOCTYPE svg PUBLIC "-//W3C//DTD SVG 1.1//EN" "http://www.w3.org/Graphics/SVG/1.1/DTD/svg11.dtd">
<svg xmlns="http://www.w3.org/2000/svg" xmlns:xlink="http://www.w3.org/1999/xlink" version="1.1" id="Capa_1" x="0px" y="0px" width="512px" height="512px" viewBox="0 0 612.076 612.076" style="enable-background:new 0 0 612.076 612.076;" xml:space="preserve">
<g>
	<g id="list">
		<g>
			<path d="M229.538,324.972h382.5v-37.064h-382.5V324.972z M228.353,554.472h383.686v-37.064H228.353V554.472z M229.538,58.427     v37.064h382.5V58.427H229.538z M76.576,459c-42.266,0-76.538,34.271-76.538,76.538s34.272,76.538,76.538,76.538     c42.267,0,76.539-34.271,76.539-76.538S118.843,459,76.576,459z M76.576,581.209c-25.226,0-45.67-20.445-45.67-45.671     s20.445-45.689,45.67-45.689c25.226,0,45.69,20.444,45.69,45.689C122.247,560.764,101.802,581.209,76.576,581.209z M76.576,0     C34.31,0,0.038,34.272,0.038,76.538s34.272,76.538,76.538,76.538c42.267,0,76.539-34.272,76.539-76.538S118.843,0,76.576,0z      M76.576,122.208c-25.226,0-45.67-20.445-45.67-45.689c0-25.226,20.445-45.69,45.67-45.69c25.226,0,45.69,20.445,45.69,45.69     C122.247,101.764,101.802,122.208,76.576,122.208z M76.576,229.5c-42.266,0-76.538,34.272-76.538,76.538     c0,42.267,34.272,76.538,76.538,76.538c42.267,0,76.539-34.271,76.539-76.538C153.115,263.772,118.843,229.5,76.576,229.5z      M76.576,351.709c-25.226,0-45.67-20.445-45.67-45.689c0-25.227,20.445-45.671,45.67-45.671c25.226,0,45.69,20.444,45.69,45.671     C122.247,331.264,101.802,351.709,76.576,351.709z" fill="#6320ee"/>
		</g>
	</g>
</g>
<g>
</g>
<g>
</g>
<g>
</g>
<g>
</g>
<g>
</g>
<g>
</g>
<g>
</g>
<g>
</g>
<g>
</g>
<g>
</g>
<g>
</g>
<g>
</g>
<g>
</g>
<g>
</g>
<g>
</g>
</svg>
